<svg width="166" height="42" viewBox="0 0 166 42" fill="none" xmlns="http://www.w3.org/2000/svg">
<path d="M7.29374 4.59126L22.216 8.45909L22.648 5.45605L1.60557 0L1.17534 2.99082L7.20256 4.5532L7.29374 4.59126Z" fill="#343434"/>
<path d="M30.1083 13.5104C27.3394 13.5104 24.6327 14.3315 22.3304 15.8698C20.0281 17.4082 18.2337 19.5947 17.174 22.1528C16.1144 24.711 15.8372 27.5259 16.3774 30.2417C16.9176 32.9574 18.2509 35.452 20.2089 37.4099C22.1668 39.3678 24.6614 40.7012 27.3771 41.2414C30.0928 41.7816 32.9078 41.5043 35.4659 40.4447C38.0241 39.3851 40.2106 37.5907 41.7489 35.2884C43.2873 32.9861 44.1083 30.2793 44.1083 27.5104C44.1083 23.7974 42.6334 20.2364 40.0078 17.6109C37.3823 14.9854 33.8214 13.5104 30.1083 13.5104ZM30.1083 34.5104C28.7239 34.5104 27.3705 34.0999 26.2194 33.3307C25.0682 32.5615 24.171 31.4683 23.6412 30.1892C23.1114 28.9101 22.9728 27.5026 23.2429 26.1448C23.5129 24.7869 24.1796 23.5396 25.1586 22.5607C26.1376 21.5817 27.3848 20.915 28.7427 20.6449C30.1006 20.3748 31.5081 20.5134 32.7871 21.0433C34.0662 21.5731 35.1595 22.4703 35.9286 23.6214C36.6978 24.7726 37.1083 26.1259 37.1083 27.5104C37.1083 29.3669 36.3708 31.1474 35.0581 32.4602C33.7453 33.7729 31.9649 34.5104 30.1083 34.5104Z" fill="#343434"/>
<path d="M11.4941 9.18942H17.1516L15.6979 5.13078L10.1083 4.51041L11.4941 9.18942Z" fill="#343434"/>
<path d="M73.8676 2.56592C72.7658 2.59678 71.6639 2.62765 70.5682 2.71715C70.0744 2.75728 69.5806 2.81592 69.0867 2.86839C67.8213 3.00419 66.561 3.17909 65.3059 3.39308C64.8337 3.47024 64.3799 3.54122 63.8954 3.63382C62.2534 3.94246 60.6238 4.32209 59.0127 4.76962C58.7596 4.84061 58.5127 4.9332 58.2596 5.00728C56.8913 5.40851 55.5374 5.85707 54.1979 6.35295L53.5806 6.59061L77.204 8.7511L73.8676 2.56592Z" fill="#343434"/>
<path d="M102.284 11.7449L108.766 10.6863L105.482 9.04433C97.1325 4.88854 87.9554 2.66388 78.6299 2.53507C78.3583 2.53507 78.0836 2.51038 77.812 2.51038H73.1083L74.8312 8.5L102.284 11.7449Z" fill="#343434"/>
<path d="M39.0867 8.74188H5.28117V25.353L14.8306 30.1277C14.3702 27.7501 14.4759 25.2976 15.1391 22.9684C15.8022 20.6392 17.0042 18.4988 18.6479 16.7203C20.2916 14.9417 22.3308 13.575 24.6005 12.7306C26.8703 11.8862 29.3069 11.5879 31.7133 11.8597C34.1198 12.1315 36.4285 12.9658 38.4527 14.2952C40.4769 15.6246 42.1599 17.4118 43.3654 19.5121C44.571 21.6125 45.2653 23.9671 45.3922 26.3855C45.5191 28.8039 45.0751 31.2182 44.096 33.4332H79.2164L61.6053 10.7882L39.0867 8.74188Z" fill="#343434"/>
<path d="M135.108 13.5104C132.339 13.5104 129.633 14.3315 127.33 15.8698C125.028 17.4082 123.234 19.5947 122.174 22.1528C121.114 24.711 120.837 27.5259 121.377 30.2417C121.918 32.9574 123.251 35.452 125.209 37.4099C127.167 39.3678 129.661 40.7012 132.377 41.2414C135.093 41.7816 137.908 41.5043 140.466 40.4447C143.024 39.3851 145.211 37.5907 146.749 35.2884C148.287 32.9861 149.108 30.2793 149.108 27.5104C149.108 23.7974 147.633 20.2364 145.008 17.6109C142.382 14.9854 138.821 13.5104 135.108 13.5104ZM135.108 34.5104C133.724 34.5104 132.371 34.0999 131.219 33.3307C130.068 32.5615 129.171 31.4683 128.641 30.1892C128.111 28.9101 127.973 27.5026 128.243 26.1448C128.513 24.7869 129.18 23.5396 130.159 22.5607C131.138 21.5817 132.385 20.915 133.743 20.6449C135.101 20.3748 136.508 20.5134 137.787 21.0433C139.066 21.5731 140.159 22.4703 140.929 23.6214C141.698 24.7726 142.108 26.1259 142.108 27.5104C142.108 29.3669 141.371 31.1474 140.058 32.4602C138.745 33.7729 136.965 34.5104 135.108 34.5104Z" fill="#343434"/>
<path d="M148.605 20.2974C149.669 22.3108 150.261 24.5399 150.335 26.8158C150.409 29.0918 149.965 31.3548 149.034 33.4332H165.775V26.3561L148.605 20.2974Z" fill="#343434"/>
<path d="M128.571 13.2265L125.13 12.0135L107.633 14.8746C107.468 14.9018 107.301 14.9152 107.133 14.9147C107.041 14.9194 106.948 14.9194 106.855 14.9147L70.0219 11.5536L87.0405 33.4333H94.5374L86.204 23.0166L91.025 19.1586L102.445 33.4333H120.787C119.926 31.4891 119.481 29.3867 119.479 27.2604C119.486 24.2948 120.347 21.394 121.959 18.9051C123.572 16.4163 125.867 14.4447 128.571 13.2265Z" fill="#343434"/>
</svg>
