<svg width="159" height="53" viewBox="0 0 159 53" fill="none" xmlns="http://www.w3.org/2000/svg">
<path d="M1.1432 30.628V4.212L0.623203 0.0520024H33.0712V5.044H8.0072V12.636H27.4552V17.784H8.0072V30.628H1.1432Z" fill="#F9F7F7"/>
<path d="M47.2481 30.628C44.8214 30.628 42.9148 30.2813 41.5281 29.588C40.1414 28.8947 39.1534 27.8547 38.5641 26.468C38.0094 25.0813 37.7321 23.3653 37.7321 21.32V9.308C37.7321 7.29733 38.0094 5.616 38.5641 4.264C39.1188 2.87733 40.0894 1.83733 41.4761 1.144C42.8628 0.416002 44.7868 0.0520024 47.2481 0.0520024H62.4321C64.8588 0.0520024 66.7481 0.416002 68.1001 1.144C69.4868 1.83733 70.4574 2.87733 71.0121 4.264C71.6014 5.616 71.8961 7.29733 71.8961 9.308V21.32C71.8961 24.3707 71.2201 26.6933 69.8681 28.288C68.5161 29.848 66.0374 30.628 62.4321 30.628H47.2481ZM48.7561 25.636H60.9761C62.2588 25.636 63.2468 25.3067 63.9401 24.648C64.6681 23.9893 65.0321 23.088 65.0321 21.944V8.684C65.0321 7.67867 64.6681 6.82933 63.9401 6.136C63.2121 5.408 62.2241 5.044 60.9761 5.044H48.7561C47.5081 5.044 46.5028 5.37334 45.7401 6.032C44.9774 6.69067 44.5961 7.57467 44.5961 8.684V21.944C44.5961 23.1227 44.9601 24.0413 45.6881 24.7C46.4508 25.324 47.4734 25.636 48.7561 25.636Z" fill="#F9F7F7"/>
<path d="M112.918 31.148C111.531 31.148 110.162 30.94 108.81 30.524C107.492 30.0733 105.984 28.9987 104.286 27.3L100.542 23.556C99.0163 21.996 97.3349 20.852 95.4976 20.124C93.6949 19.396 91.4243 19.032 88.6856 19.032H87.0736V30.628H80.2096V4.212L79.6896 0H102.726C104.944 0 106.678 0.294667 107.926 0.884001C109.208 1.47334 110.144 2.25334 110.734 3.224C111.358 4.16 111.756 5.16534 111.93 6.24C112.103 7.31467 112.19 8.33733 112.19 9.308V10.296C112.19 11.0587 112.086 11.908 111.878 12.844C111.67 13.78 111.271 14.6987 110.682 15.6C110.092 16.5013 109.243 17.264 108.134 17.888C107.059 18.512 105.638 18.876 103.87 18.98C104.32 19.2227 104.892 19.604 105.586 20.124C106.279 20.6093 106.99 21.1467 107.718 21.736C108.48 22.3253 109.174 22.8627 109.798 23.348C110.422 23.8333 110.907 24.18 111.254 24.388C112.502 25.116 113.611 25.6187 114.582 25.896C115.552 26.1733 116.35 26.3293 116.974 26.364C117.598 26.3987 117.962 26.416 118.066 26.416L117.026 30.628C116.714 30.732 116.194 30.836 115.466 30.94C114.738 31.0787 113.888 31.148 112.918 31.148ZM94.8736 14.3C96.1909 14.3 97.3696 14.2827 98.4096 14.248C99.4496 14.1787 100.386 14.1093 101.218 14.04C102.743 13.8667 103.8 13.4507 104.39 12.792C105.014 12.0987 105.326 11.2147 105.326 10.14V8.944C105.326 7.83467 105.031 6.89867 104.442 6.136C103.852 5.37333 102.795 4.992 101.27 4.992H87.0736V14.04C88.5989 14.144 90.0029 14.2133 91.2856 14.248C92.5683 14.2827 93.7643 14.3 94.8736 14.3Z" fill="#F9F7F7"/>
<path d="M123.272 30.628V4.212L122.752 0.0520024H146.88C149.688 0.0520024 151.837 0.398669 153.328 1.092C154.853 1.78533 155.911 2.82533 156.5 4.212C157.089 5.564 157.384 7.26267 157.384 9.308V21.32C157.384 23.4 157.089 25.1333 156.5 26.52C155.945 27.872 154.905 28.8947 153.38 29.588C151.889 30.2813 149.723 30.628 146.88 30.628H123.272ZM130.136 25.636H146.464C149.133 25.636 150.485 24.4053 150.52 21.944V8.684C150.52 7.67867 150.225 6.82933 149.636 6.136C149.047 5.408 147.989 5.044 146.464 5.044H130.136V25.636Z" fill="#F9F7F7"/>
<path d="M4.564 52.908C2.86533 52.908 1.68 52.4507 1.008 51.536C0.336 50.6213 0 49.408 0 47.896V36.164H3.696V48.008C3.696 48.8853 3.91067 49.4733 4.34 49.772C4.76933 50.0707 5.30133 50.22 5.936 50.22H11.872C12.4693 50.22 12.992 50.0707 13.44 49.772C13.888 49.4547 14.112 48.8667 14.112 48.008V36.164H17.808V47.896C17.808 48.904 17.668 49.7813 17.388 50.528C17.108 51.2747 16.6413 51.8627 15.988 52.292C15.3347 52.7027 14.4293 52.908 13.272 52.908H4.564Z" fill="#F9F7F7"/>
<path d="M22.1375 52.628V38.404L21.8575 36.164H25.8895L35.4095 46.132L36.5015 47.644H36.8095V36.164H40.5055V52.628H36.9495L27.2055 42.492L26.1135 41.176H25.8335V52.628H22.1375Z" fill="#F9F7F7"/>
<path d="M44.9903 52.628V36.164H48.6863V52.628H44.9903Z" fill="#F9F7F7"/>
<path d="M59.0181 52.628L51.2061 36.192H55.1261L60.3901 47.532L61.1461 49.548H61.3981L62.1261 47.532L67.4461 36.192H71.2541L70.8061 37.872L63.4981 52.628H59.0181Z" fill="#F9F7F7"/>
<path d="M73.7833 52.628V36.164H91.1993V38.852H77.4793V42.716H87.9513V45.488H77.4793V49.94H91.3113L92.4313 52.32C92.4313 52.3947 92.1793 52.4693 91.6753 52.544C91.1713 52.6 90.3033 52.628 89.0713 52.628H73.7833Z" fill="#F9F7F7"/>
<path d="M113.113 52.908C112.366 52.908 111.629 52.796 110.901 52.572C110.191 52.3293 109.379 51.7507 108.465 50.836L106.449 48.82C105.627 47.98 104.722 47.364 103.733 46.972C102.762 46.58 101.539 46.384 100.065 46.384H99.1968V52.628H95.5008V38.404L95.2208 36.136H107.625C108.819 36.136 109.753 36.2947 110.425 36.612C111.115 36.9293 111.619 37.3493 111.937 37.872C112.273 38.376 112.487 38.9173 112.581 39.496C112.674 40.0747 112.721 40.6253 112.721 41.148V41.68C112.721 42.0907 112.665 42.548 112.553 43.052C112.441 43.556 112.226 44.0507 111.909 44.536C111.591 45.0213 111.134 45.432 110.537 45.768C109.958 46.104 109.193 46.3 108.241 46.356C108.483 46.4867 108.791 46.692 109.165 46.972C109.538 47.2333 109.921 47.5227 110.313 47.84C110.723 48.1573 111.097 48.4467 111.433 48.708C111.769 48.9693 112.03 49.156 112.217 49.268C112.889 49.66 113.486 49.9307 114.009 50.08C114.531 50.2293 114.961 50.3133 115.297 50.332C115.633 50.3507 115.829 50.36 115.885 50.36L115.325 52.628C115.157 52.684 114.877 52.74 114.485 52.796C114.093 52.8707 113.635 52.908 113.113 52.908ZM103.397 43.836C104.106 43.836 104.741 43.8267 105.301 43.808C105.861 43.7707 106.365 43.7333 106.813 43.696C107.634 43.6027 108.203 43.3787 108.521 43.024C108.857 42.6507 109.025 42.1747 109.025 41.596V40.952C109.025 40.3547 108.866 39.8507 108.549 39.44C108.231 39.0293 107.662 38.824 106.841 38.824H99.1968V43.696C100.018 43.752 100.774 43.7893 101.465 43.808C102.155 43.8267 102.799 43.836 103.397 43.836Z" fill="#F9F7F7"/>
<path d="M121.544 52.628C120.275 52.628 119.342 52.572 118.744 52.46C118.147 52.348 117.848 52.2173 117.848 52.068L118.968 49.632C119.398 49.7067 120.462 49.7813 122.16 49.856C123.878 49.912 126.23 49.94 129.216 49.94H129.748C130.551 49.94 131.12 49.8 131.456 49.52C131.792 49.2213 131.96 48.7267 131.96 48.036V47.476C131.96 46.8227 131.82 46.356 131.54 46.076C131.279 45.796 130.682 45.656 129.748 45.656H123.252C121.367 45.656 119.995 45.3107 119.136 44.62C118.278 43.9107 117.848 42.7627 117.848 41.176V40.728C117.848 39.9067 117.998 39.1507 118.296 38.46C118.614 37.7693 119.146 37.2187 119.892 36.808C120.639 36.3787 121.666 36.164 122.972 36.164H130.588C131.858 36.164 132.884 36.2293 133.668 36.36C134.452 36.4907 134.844 36.6307 134.844 36.78L134.284 39.132C133.799 39.076 132.698 39.02 130.98 38.964C129.263 38.8893 126.958 38.852 124.064 38.852L123.756 38.824C122.898 38.824 122.319 39.0013 122.02 39.356C121.722 39.692 121.563 40.1213 121.544 40.644V41.12C121.544 41.736 121.712 42.2027 122.048 42.52C122.403 42.8187 122.982 42.968 123.784 42.968H130C131.195 42.968 132.212 43.0893 133.052 43.332C133.892 43.5747 134.536 44.0227 134.984 44.676C135.432 45.3107 135.656 46.2533 135.656 47.504V47.952C135.656 49.352 135.292 50.4813 134.564 51.34C133.855 52.1987 132.614 52.628 130.84 52.628H121.544Z" fill="#F9F7F7"/>
<path d="M139.572 52.628V36.164H156.988V38.852H143.268V42.716H153.74V45.488H143.268V49.94H157.1L158.22 52.32C158.22 52.3947 157.968 52.4693 157.464 52.544C156.96 52.6 156.092 52.628 154.86 52.628H139.572Z" fill="#F9F7F7"/>
</svg>
