<?xml version="1.0" standalone="no"?>
<svg version="1.0" xmlns="http://www.w3.org/2000/svg"
     width="2640.000000pt" height="2640.000000pt" viewBox="0 0 2640.000000 2640.000000"
     preserveAspectRatio="xMidYMid meet">
    <metadata>
        Created by potrace 1.14, written by Peter Selinger 2001-2017
    </metadata>
    <g transform="translate(0.000000,2640.000000) scale(0.100000,-0.100000)"
       fill="#000000" stroke="none">
        <path d="M119 16538 c-1 -27 -7 -70 -16 -118 -3 -19 -7 -48 -9 -65 -1 -16 -5
-48 -9 -70 -15 -92 -18 -112 -19 -159 l-1 -48 130 -34 c72 -18 139 -36 150
-38 111 -27 152 -37 165 -43 8 -3 22 -7 30 -8 8 -1 60 -14 115 -29 55 -15 111
-29 124 -32 14 -3 108 -28 210 -56 102 -27 194 -52 205 -54 10 -2 42 -10 70
-18 28 -8 62 -17 76 -20 31 -6 49 -11 127 -33 64 -18 70 -25 87 -113 2 -8 6
-22 9 -30 6 -14 38 -121 43 -145 1 -5 19 -64 38 -130 20 -66 36 -123 36 -126
0 -4 -213 -7 -474 -7 -261 0 -479 -2 -484 -6 -7 -4 -10 -444 -10 -1329 l0
-1323 92 -47 c51 -26 98 -47 104 -47 5 0 12 -3 14 -7 2 -7 915 -466 1240 -624
l77 -38 -4 27 c-2 15 -9 54 -14 87 -5 33 -11 83 -13 110 -2 28 -6 55 -8 60 -3
6 -5 80 -4 165 1 179 10 292 34 430 15 82 18 101 30 151 6 26 13 55 15 65 2
11 4 20 5 22 2 1 4 7 5 12 1 6 4 11 5 13 1 1 4 11 5 22 2 11 7 31 13 45 5 14
11 30 12 35 3 15 49 137 60 160 5 11 19 45 32 75 47 114 206 387 258 442 11
12 20 25 20 29 0 4 6 14 13 21 7 7 23 27 36 43 20 27 150 173 177 199 38 38
176 160 195 174 13 9 33 25 44 35 11 10 67 50 125 88 58 38 110 73 115 77 6 4
24 14 40 22 17 8 32 17 35 20 15 16 319 153 365 164 6 2 23 8 39 15 16 6 36
13 45 15 9 2 23 6 31 9 16 7 168 45 210 53 14 2 34 6 46 9 22 5 67 12 124 20
218 30 566 25 738 -10 15 -3 41 -8 57 -10 24 -4 123 -29 275 -69 8 -2 35 -12
60 -21 25 -9 63 -22 85 -30 55 -18 217 -92 288 -132 33 -18 63 -33 68 -33 5 0
9 -4 9 -10 0 -5 5 -10 11 -10 10 0 193 -119 235 -153 120 -97 163 -135 244
-217 109 -109 149 -153 208 -230 23 -30 46 -60 50 -65 5 -6 17 -24 28 -40 10
-17 21 -32 24 -35 11 -10 60 -86 60 -93 0 -3 10 -22 23 -40 32 -47 167 -323
167 -341 0 -4 6 -22 14 -39 13 -28 62 -177 71 -217 2 -8 8 -30 14 -49 6 -18
10 -36 9 -40 0 -3 1 -8 2 -11 7 -18 30 -141 35 -185 2 -22 7 -58 10 -80 14
-96 20 -356 11 -475 -4 -56 -18 -173 -23 -195 -2 -11 -6 -33 -8 -50 -1 -16 -4
-30 -5 -30 -2 0 -7 -25 -15 -65 -7 -36 -13 -65 -15 -65 -1 0 -3 -7 -5 -15 -13
-64 -74 -251 -109 -332 -9 -21 -16 -42 -16 -48 0 -7 884 -10 2806 -10 l2806 0
-19 24 c-10 13 -49 65 -88 115 -38 50 -73 91 -77 91 -4 0 -8 4 -8 10 0 8 -47
70 -143 190 -7 8 -23 29 -35 47 -13 18 -32 42 -42 55 -19 21 -195 248 -244
311 -20 28 -73 94 -102 130 -7 9 -12 17 -9 17 2 0 -6 11 -18 23 -12 13 -33 39
-47 58 -14 18 -33 41 -42 51 -10 10 -18 20 -18 23 0 4 -30 43 -66 88 -36 45
-71 89 -77 97 -7 9 -34 45 -62 80 -63 82 -53 70 -136 175 -38 50 -76 98 -84
108 -8 9 -15 21 -15 26 0 5 -4 11 -9 13 -5 2 -53 59 -105 128 -53 69 -102 132
-109 140 -6 8 -43 56 -82 105 -38 50 -72 92 -75 95 -3 3 -19 23 -36 45 -24 33
-89 117 -309 400 -105 136 -368 473 -378 485 -6 9 -32 42 -56 75 -25 33 -50
65 -56 70 -6 6 -33 40 -60 78 -27 37 -52 67 -57 67 -4 0 -8 5 -8 10 0 6 -23
39 -50 73 -28 34 -60 74 -73 90 -24 30 -42 36 -137 42 -36 3 -90 7 -120 10
-75 8 -155 15 -215 20 -27 3 -75 7 -105 9 -116 11 -167 16 -230 21 -36 3 -85
8 -110 11 -25 2 -72 7 -105 9 -33 3 -85 8 -115 10 -30 3 -77 7 -105 10 -74 6
-153 13 -215 19 -145 14 -188 18 -330 30 -41 4 -97 9 -125 12 -27 3 -75 7
-105 9 -30 2 -80 6 -111 10 -31 4 -78 8 -105 10 -27 2 -49 4 -49 5 0 1 -22 3
-50 5 -27 2 -79 6 -115 9 -36 4 -94 9 -130 12 -36 3 -81 7 -100 10 -53 6 -191
17 -227 18 -18 1 -33 3 -33 6 0 3 -19 5 -43 6 -53 1 -193 12 -238 19 -19 3
-65 7 -104 10 -38 3 -95 7 -125 10 -30 3 -80 8 -110 10 -30 3 -853 5 -1828 6
l-1774 1 -20 47 c-11 25 -22 57 -25 71 -2 13 -9 30 -15 37 -6 7 -7 13 -3 13 4
0 3 6 -2 13 -10 11 -22 49 -30 91 -2 13 1 17 12 12 13 -5 57 -17 155 -42 71
-18 239 -62 300 -78 23 -6 101 -26 140 -36 19 -5 55 -14 80 -20 25 -6 52 -13
60 -15 8 -3 50 -14 94 -25 43 -12 81 -18 84 -15 6 6 7 12 18 85 3 25 7 54 9
65 2 11 6 43 9 70 3 28 11 77 16 110 6 33 13 79 15 101 l5 42 -73 18 c-39 10
-74 19 -77 19 -3 1 -25 7 -50 14 -25 7 -52 14 -60 16 -8 2 -42 10 -75 20 -33
9 -69 18 -80 20 -11 3 -38 9 -60 15 -22 6 -49 13 -60 15 -11 2 -20 4 -20 5 0
1 -7 3 -15 5 -8 2 -42 11 -74 20 -33 8 -69 17 -80 20 -12 2 -21 4 -21 5 0 1
-7 3 -15 5 -15 3 -174 44 -425 110 -161 43 -148 39 -200 50 -22 4 -46 12 -52
18 -7 5 -13 7 -13 4 0 -3 -15 -1 -32 5 -18 5 -67 18 -109 27 -42 10 -81 21
-86 24 -5 3 -20 8 -34 10 -13 3 -62 15 -109 27 -47 12 -94 24 -104 26 -10 2
-35 9 -55 15 -20 7 -45 13 -56 15 -11 1 -38 7 -60 13 -22 6 -43 11 -47 11 -4
0 -26 7 -48 15 -22 8 -40 12 -40 10 0 -3 -12 0 -27 6 -16 6 -39 13 -51 15 -13
3 -49 12 -80 20 -74 21 -271 72 -342 89 -8 2 -42 11 -74 20 -33 8 -67 17 -75
19 -9 2 -23 6 -31 9 -12 4 -180 47 -248 62 -9 2 -44 12 -77 21 -33 9 -68 18
-78 20 -10 2 -27 6 -38 9 -15 5 -19 1 -20 -17z"/>
        <path d="M11678 16164 c-3 -2 -32 -7 -64 -9 -33 -2 -84 -6 -114 -8 -30 -3
-115 -8 -188 -12 -137 -7 -171 -10 -257 -20 -27 -3 -66 -8 -85 -10 -154 -15
-268 -28 -345 -40 -16 -3 -46 -7 -65 -9 -60 -9 -104 -15 -127 -20 -11 -3 -43
-8 -70 -12 -26 -3 -57 -8 -68 -10 -11 -2 -60 -11 -110 -19 -49 -8 -101 -17
-115 -20 -14 -4 -34 -7 -45 -9 -18 -3 -73 -14 -155 -32 -14 -3 -36 -7 -50 -10
-14 -3 -52 -12 -85 -20 -33 -8 -71 -17 -85 -19 -69 -14 -320 -82 -435 -117
-253 -79 -350 -109 -365 -115 -8 -3 -19 -7 -25 -9 -5 -1 -29 -9 -52 -18 -24
-8 -43 -12 -43 -8 0 4 -4 2 -8 -3 -4 -6 -29 -18 -57 -27 -94 -31 -140 -48
-157 -58 -10 -6 -24 -10 -32 -10 -18 0 -30 -17 -13 -17 34 -1 196 -15 221 -19
28 -5 99 -11 206 -19 30 -2 75 -6 100 -9 25 -4 72 -8 105 -11 33 -2 87 -7 120
-10 33 -3 83 -8 110 -10 28 -2 77 -7 110 -10 33 -4 78 -8 100 -10 22 -2 76 -6
120 -10 44 -3 91 -8 105 -10 14 -2 63 -7 110 -10 47 -4 101 -9 120 -11 19 -2
60 -6 90 -9 71 -6 146 -12 223 -20 91 -9 144 -14 217 -19 65 -6 112 -10 225
-22 72 -7 102 -10 220 -19 50 -3 101 -8 115 -10 14 -3 61 -7 105 -11 44 -3 96
-8 115 -10 19 -2 67 -6 105 -9 39 -2 90 -7 115 -11 25 -3 68 -8 95 -10 67 -5
160 -13 215 -19 25 -2 77 -6 115 -9 39 -3 70 -6 70 -6 0 -2 46 -8 115 -14 36
-4 77 -9 92 -11 15 -3 51 -7 80 -10 29 -3 67 -7 83 -9 17 -2 55 -6 85 -10 30
-3 64 -8 75 -10 11 -2 49 -7 85 -10 36 -4 77 -8 91 -11 14 -3 55 -7 90 -10 35
-2 74 -6 86 -9 12 -3 48 -7 80 -11 63 -6 125 -14 188 -21 70 -9 89 -11 150
-18 33 -3 76 -9 96 -12 20 -3 56 -7 80 -9 24 -2 55 -6 69 -9 14 -2 54 -8 90
-11 36 -4 79 -8 95 -10 17 -2 56 -6 88 -9 32 -3 68 -8 80 -11 12 -2 47 -7 77
-10 79 -8 139 -14 190 -22 25 -3 61 -7 80 -9 19 -1 35 -3 35 -4 0 -1 14 -3 30
-4 17 -2 59 -7 95 -11 36 -4 76 -9 90 -10 30 -2 135 -15 169 -21 14 -2 54 -6
90 -10 36 -3 74 -8 86 -10 11 -2 45 -6 75 -9 30 -3 73 -8 95 -10 67 -9 118
-15 165 -21 25 -3 61 -7 80 -9 19 -2 60 -7 90 -11 30 -3 71 -8 90 -10 19 -2
49 -6 65 -8 17 -3 55 -7 85 -11 66 -7 134 -15 175 -20 17 -2 55 -6 85 -10 30
-3 66 -8 80 -9 14 -2 54 -7 90 -11 36 -4 86 -10 112 -14 49 -8 145 -6 188 4
14 3 41 8 60 11 19 3 42 7 50 9 8 2 35 7 60 10 25 3 97 15 160 25 63 11 133
22 155 25 22 4 63 11 90 16 28 5 64 11 80 13 17 2 53 7 80 12 28 4 59 8 70 10
11 1 21 3 23 4 1 2 10 3 20 4 9 1 22 4 27 7 6 4 22 6 38 5 15 -1 27 -1 27 0 0
6 -115 64 -125 64 -6 0 -17 6 -24 13 -6 6 -15 12 -19 13 -4 0 -90 43 -192 94
-102 52 -189 97 -195 99 -5 2 -70 32 -142 67 -115 55 -455 206 -493 219 -3 1
-14 5 -25 10 -11 4 -54 21 -95 37 -41 16 -84 33 -95 38 -24 11 -267 97 -380
135 -44 15 -87 29 -95 32 -21 8 -32 12 -55 17 -11 2 -21 5 -22 6 -2 2 -7 4
-13 5 -5 1 -11 3 -12 5 -2 1 -10 3 -18 5 -8 2 -53 16 -100 30 -47 14 -96 28
-109 31 -13 3 -32 9 -42 14 -10 6 -28 10 -42 10 -13 0 -27 3 -30 7 -6 5 -167
49 -252 68 -35 8 -59 14 -125 30 -36 9 -74 18 -85 20 -11 2 -40 9 -65 14 -86
20 -177 38 -330 66 -41 8 -91 17 -110 20 -45 9 -65 12 -120 19 -84 12 -116 16
-140 21 -14 3 -50 7 -80 11 -30 3 -66 7 -80 10 -14 3 -41 7 -60 9 -64 7 -165
18 -195 20 -16 1 -61 6 -100 10 -226 22 -789 47 -1040 46 -52 -1 -173 -1 -185
-1 -8 0 -74 0 -146 -1 -72 -1 -136 1 -141 4 -6 4 -12 4 -15 1z"/>
        <path d="M11205 14538 c75 -95 142 -181 150 -191 8 -9 15 -21 15 -26 0 -5 3
-11 8 -13 7 -3 40 -42 82 -98 14 -18 45 -58 70 -89 25 -32 56 -72 70 -91 14
-18 31 -39 38 -46 6 -7 12 -17 12 -22 0 -6 4 -12 8 -14 7 -2 111 -132 222
-278 14 -18 32 -41 40 -51 8 -9 71 -90 140 -179 69 -89 145 -188 170 -220 25
-31 56 -72 70 -90 14 -18 54 -70 90 -115 36 -45 76 -97 90 -115 14 -18 78
-101 142 -184 65 -83 128 -164 140 -180 13 -16 44 -57 70 -90 55 -70 52 -66
97 -126 19 -25 40 -49 46 -55 6 -5 16 -17 21 -26 5 -9 21 -32 36 -50 20 -25
269 -345 330 -424 4 -5 20 -26 36 -45 15 -19 64 -82 107 -139 75 -96 160 -206
188 -241 7 -8 28 -35 47 -60 19 -25 40 -51 47 -58 9 -9 139 -12 607 -10 l596
3 -24 30 c-14 17 -30 37 -38 45 -7 9 -26 34 -42 55 -17 22 -32 42 -36 45 -3 3
-86 106 -185 230 -98 124 -184 230 -189 237 -6 7 -16 18 -21 25 -82 105 -161
204 -165 208 -3 3 -32 39 -65 80 -32 41 -64 80 -70 87 -5 7 -15 18 -20 25 -85
109 -161 204 -165 208 -3 3 -57 70 -120 150 -63 80 -117 147 -120 150 -3 3
-20 24 -38 47 l-32 41 110 87 c60 47 115 91 122 98 7 7 56 46 108 87 114 90
129 102 144 115 6 6 31 26 56 45 25 19 50 39 57 45 7 5 18 15 25 20 7 6 42 34
76 63 35 28 67 52 71 52 4 0 20 -18 37 -40 16 -22 32 -40 37 -40 4 0 7 -4 7
-10 0 -5 8 -19 18 -29 9 -11 22 -26 27 -33 23 -28 221 -274 236 -293 9 -11 67
-83 128 -160 61 -77 116 -146 122 -153 6 -7 92 -115 191 -239 100 -125 189
-236 199 -247 9 -12 49 -61 88 -111 38 -49 76 -97 84 -105 7 -8 49 -60 92
-115 44 -55 83 -101 87 -103 4 -2 8 -8 8 -13 0 -5 8 -17 18 -28 9 -10 28 -33
42 -51 14 -19 30 -38 35 -44 6 -6 46 -56 90 -111 43 -55 81 -102 85 -105 3 -3
21 -25 40 -50 19 -25 38 -46 42 -48 5 -2 8 -8 8 -14 0 -5 6 -15 13 -22 6 -7
32 -36 56 -65 l44 -51 1465 0 c1391 0 1464 1 1457 18 -62 147 -135 385 -159
517 -29 164 -40 279 -40 445 0 168 13 318 40 455 4 22 9 49 10 60 1 11 3 20 4
20 1 0 3 7 5 15 21 100 84 294 133 410 190 448 508 832 910 1099 107 70 256
154 307 172 19 7 35 16 35 20 0 3 -42 21 -92 38 -51 18 -129 45 -173 61 -226
81 -260 93 -284 93 -22 0 -228 -31 -311 -48 -14 -3 -45 -8 -70 -11 -25 -3 -54
-8 -65 -10 -10 -2 -37 -6 -60 -9 -22 -3 -47 -8 -55 -10 -8 -2 -35 -7 -60 -10
-25 -3 -67 -10 -95 -15 -27 -5 -66 -12 -85 -14 -19 -3 -46 -7 -60 -10 -14 -3
-86 -15 -160 -26 -74 -12 -146 -23 -160 -26 -14 -3 -41 -7 -60 -10 -19 -2 -42
-7 -50 -9 -8 -3 -38 -7 -65 -10 -28 -4 -61 -8 -75 -11 -14 -3 -34 -7 -45 -9
-34 -6 -99 -17 -125 -20 -14 -1 -38 -5 -55 -8 -31 -7 -79 -15 -128 -23 -15 -2
-42 -6 -60 -9 -17 -3 -48 -7 -67 -10 -19 -3 -125 -20 -236 -39 -111 -19 -221
-37 -245 -40 -24 -3 -54 -8 -65 -10 -12 -2 -39 -7 -60 -10 -22 -4 -79 -13
-129 -22 -144 -25 -165 -27 -255 -27 -79 1 -150 6 -260 19 -25 3 -67 7 -95 9
-27 2 -76 7 -107 10 -32 3 -84 7 -115 10 -32 3 -85 7 -118 11 -33 3 -78 7
-100 9 -54 4 -168 14 -230 20 -27 3 -75 7 -105 10 -30 2 -71 6 -90 9 -19 3
-69 8 -110 11 -41 4 -97 9 -125 11 -27 2 -75 6 -105 8 -30 2 -73 7 -95 10 -22
3 -76 8 -120 11 -44 4 -100 9 -125 11 -25 3 -67 7 -95 9 -118 9 -192 16 -225
20 -19 2 -64 7 -100 10 -36 3 -92 8 -125 11 -33 3 -76 7 -95 9 -19 1 -71 5
-115 10 -44 4 -98 8 -120 10 -22 2 -67 7 -100 10 -33 3 -85 7 -115 10 -30 2
-79 7 -107 10 -64 6 -136 13 -223 20 -36 3 -76 7 -90 9 -14 3 -65 8 -115 11
-49 4 -106 8 -125 10 -19 2 -62 6 -95 9 -33 3 -78 8 -100 10 -22 3 -78 8 -125
11 -47 4 -101 9 -120 10 -19 2 -64 6 -100 10 -36 3 -81 7 -100 9 -19 2 -69 7
-110 10 -41 4 -91 9 -110 11 -19 1 -73 6 -120 10 -47 4 -101 8 -120 10 -19 2
-64 6 -100 9 -36 3 -81 8 -100 11 -19 2 -69 7 -110 10 -41 3 -89 7 -105 9 -17
3 -63 6 -103 8 -39 2 -72 5 -72 8 0 3 -17 5 -38 6 -34 0 -152 10 -247 20 -22
2 -69 6 -105 9 -36 3 -91 7 -122 10 l-58 5 135 -172z"/>
        <path d="M4647 14404 c-3 -4 -39 -8 -79 -10 -40 -2 -98 -6 -128 -10 -30 -3
-70 -8 -88 -10 -18 -2 -41 -5 -50 -8 -9 -3 -33 -8 -52 -11 -19 -3 -51 -10 -70
-15 -19 -5 -46 -11 -60 -14 -36 -6 -220 -67 -249 -82 -14 -7 -28 -11 -33 -8
-4 3 -8 0 -8 -5 0 -6 -6 -11 -14 -11 -30 0 -258 -123 -382 -206 -71 -47 -131
-89 -134 -93 -3 -3 -32 -28 -65 -56 -102 -85 -271 -262 -324 -339 -8 -12 -17
-23 -20 -26 -4 -3 -20 -25 -36 -50 -16 -25 -32 -47 -35 -50 -10 -10 -31 -45
-36 -62 -4 -10 -10 -18 -14 -18 -7 0 -152 -283 -156 -304 -1 -6 -14 -42 -29
-81 -33 -85 -75 -227 -90 -305 -3 -14 -7 -36 -10 -50 -3 -14 -8 -41 -11 -60
-2 -19 -7 -46 -9 -60 -24 -135 -24 -451 1 -605 2 -16 6 -43 9 -60 4 -31 6 -42
27 -135 7 -30 13 -59 14 -65 0 -5 3 -17 7 -25 3 -8 19 -60 37 -115 17 -55 39
-118 49 -140 10 -22 26 -58 36 -80 52 -116 117 -236 153 -280 4 -5 11 -17 14
-26 3 -8 40 -61 83 -117 111 -148 347 -383 450 -448 17 -10 32 -21 35 -25 17
-20 178 -119 275 -169 97 -49 292 -132 345 -146 187 -49 251 -65 280 -69 19
-3 44 -7 55 -9 21 -4 121 -15 187 -21 20 -2 42 -6 47 -10 6 -3 11 -1 11 5 0 6
5 8 11 4 25 -15 285 -3 429 20 25 4 59 10 75 12 17 3 48 10 70 16 22 5 51 12
65 14 14 3 32 7 40 11 8 3 20 7 25 7 22 4 102 28 130 40 17 8 41 17 54 21 13
4 39 14 58 21 18 8 34 14 35 14 9 -3 253 128 302 161 32 21 60 39 63 39 2 0 9
5 16 10 7 6 44 34 82 62 39 29 83 64 100 78 48 41 245 238 245 244 0 4 9 17
20 29 50 53 76 88 141 187 38 58 73 110 78 115 13 18 140 281 145 305 1 3 7
14 13 25 6 11 11 23 12 28 1 4 1 8 2 10 0 1 2 9 4 17 1 8 12 40 24 70 11 30
22 66 25 80 2 14 11 52 19 85 16 62 22 90 32 160 3 22 8 51 10 65 18 107 24
346 11 475 -16 165 -22 198 -51 320 -9 39 -18 75 -19 80 -22 97 -105 311 -166
426 -81 155 -113 209 -121 209 -5 0 -9 6 -9 13 0 7 -13 28 -30 47 -16 19 -29
38 -30 42 0 7 -4 11 -101 126 -96 115 -237 251 -326 314 -24 17 -43 35 -43 40
0 4 -6 8 -12 8 -7 0 -35 18 -63 40 -27 22 -53 40 -57 40 -4 0 -32 16 -62 35
-30 19 -58 35 -61 35 -3 0 -22 10 -43 23 -73 46 -381 165 -467 181 -11 2 -47
11 -80 19 -33 9 -80 18 -105 21 -25 3 -56 9 -70 12 -39 8 -115 14 -226 18 -56
2 -106 6 -111 9 -6 4 -13 4 -16 1z m238 -1144 c28 -6 61 -14 74 -16 13 -3 32
-9 43 -15 10 -5 18 -7 18 -4 0 3 15 -1 34 -9 19 -8 37 -12 40 -8 3 3 6 0 6 -6
0 -7 5 -12 11 -12 23 0 156 -73 231 -127 68 -49 177 -153 233 -223 85 -108
170 -292 204 -445 48 -215 22 -489 -64 -673 -14 -29 -25 -55 -25 -57 0 -12
-102 -175 -110 -175 -5 0 -11 -8 -14 -17 -7 -22 -110 -129 -174 -180 -26 -21
-49 -40 -52 -43 -15 -16 -116 -74 -184 -106 -144 -66 -310 -105 -456 -106 -47
-1 -203 13 -211 18 -4 2 -24 6 -45 9 -22 3 -46 9 -54 12 -8 3 -23 8 -33 9 -79
16 -286 126 -380 203 -72 59 -207 208 -207 229 0 6 -4 12 -8 14 -17 6 -92 146
-120 223 -44 120 -54 160 -69 265 -14 101 -4 321 17 376 5 13 7 24 5 24 -3 0
1 16 9 35 8 19 13 35 10 35 -2 0 2 13 11 30 8 16 15 31 14 32 -3 11 62 151 74
156 4 2 7 8 7 13 0 11 74 123 99 148 9 10 25 28 37 42 22 25 114 111 152 141
57 46 187 120 196 111 3 -4 6 -1 6 5 0 6 24 18 53 28 28 9 57 19 62 23 6 3 15
7 20 8 6 1 37 9 70 18 33 8 83 18 110 21 28 4 51 8 53 9 8 8 264 -5 307 -15z"/>
        <path d="M21447 14404 c-3 -3 -41 -8 -84 -10 -92 -4 -152 -11 -258 -29 -16 -3
-46 -8 -65 -11 -19 -3 -44 -8 -55 -11 -11 -4 -24 -8 -30 -9 -95 -17 -309 -95
-445 -160 -85 -41 -257 -139 -270 -153 -3 -3 -32 -24 -64 -46 -33 -22 -64 -44
-70 -50 -6 -5 -41 -35 -76 -65 -132 -112 -370 -375 -370 -408 0 -7 -4 -12 -9
-12 -5 0 -24 -25 -41 -55 -17 -30 -38 -62 -46 -70 -9 -8 -12 -15 -8 -15 4 0
-1 -9 -11 -20 -10 -11 -14 -20 -9 -20 5 0 4 -4 -1 -8 -14 -10 -58 -93 -101
-192 -38 -88 -116 -310 -109 -310 3 0 0 -12 -6 -27 -6 -16 -13 -37 -15 -48 -2
-11 -6 -31 -9 -45 -3 -14 -8 -38 -10 -55 -3 -16 -8 -43 -12 -60 -8 -37 -10
-49 -19 -155 -13 -154 -9 -361 11 -500 3 -25 19 -125 20 -130 1 -3 7 -32 14
-65 12 -55 32 -124 66 -230 48 -148 165 -389 232 -480 5 -6 17 -26 27 -45 11
-19 22 -37 26 -40 3 -3 19 -23 35 -46 49 -67 106 -135 171 -201 33 -35 58 -63
56 -63 -3 0 8 -10 24 -22 16 -13 43 -36 60 -53 17 -16 57 -50 90 -75 32 -25
61 -48 64 -51 10 -13 207 -138 270 -171 285 -152 606 -245 905 -263 33 -2 62
-4 65 -5 35 -10 313 5 430 24 25 4 59 10 75 12 17 3 48 10 70 16 22 5 51 12
65 15 35 6 223 64 235 72 6 4 28 13 50 20 126 43 381 185 500 278 17 13 35 27
40 31 87 63 272 241 345 330 19 24 43 54 54 65 10 12 30 40 44 62 14 22 28 42
32 45 3 3 24 34 46 70 21 36 41 67 44 70 3 3 19 32 35 65 17 33 33 62 38 63 4
2 7 10 7 17 0 7 9 30 19 52 63 123 143 371 167 519 21 128 31 205 30 247 -1
26 1 47 4 47 15 0 0 314 -20 440 -5 30 -12 73 -15 95 -3 22 -13 67 -21 100 -9
33 -18 68 -19 78 -2 9 -6 21 -9 25 -3 5 -7 19 -10 33 -4 22 -38 122 -53 159
-3 8 -7 17 -8 20 -18 50 -109 234 -161 323 -42 73 -148 221 -191 267 -18 19
-33 38 -33 42 0 13 -206 213 -280 271 -41 33 -76 63 -78 68 -2 5 -9 9 -16 9
-6 0 -27 13 -46 28 -168 137 -581 313 -835 357 -11 2 -31 6 -45 9 -81 16 -223
29 -325 30 -49 1 -93 4 -96 9 -3 4 -8 5 -12 1z m208 -1138 c28 -4 74 -14 102
-22 29 -9 56 -15 60 -16 5 0 22 -6 40 -13 17 -7 34 -11 37 -7 3 3 6 1 6 -4 0
-6 16 -16 36 -23 42 -15 173 -88 192 -107 7 -8 17 -14 22 -14 15 0 213 -203
251 -256 44 -64 139 -254 141 -284 0 -3 4 -12 9 -21 4 -9 11 -29 13 -45 3 -16
10 -44 16 -63 12 -42 24 -167 23 -241 -1 -62 -12 -191 -18 -200 -2 -4 -6 -19
-9 -34 -9 -50 -37 -141 -57 -183 -10 -24 -19 -47 -19 -53 0 -5 -4 -10 -10 -10
-5 0 -10 -7 -10 -17 0 -30 -130 -211 -203 -283 -83 -81 -173 -150 -237 -182
-25 -13 -56 -30 -70 -39 -20 -13 -77 -36 -110 -44 -3 -1 -12 -4 -20 -8 -14 -6
-86 -26 -120 -34 -46 -10 -174 -25 -220 -26 -36 0 -173 12 -200 17 -8 1 -33 6
-55 10 -55 11 -219 68 -223 78 -2 4 -10 8 -17 8 -18 0 -102 49 -180 105 -99
71 -255 232 -255 264 0 6 -4 11 -8 11 -5 0 -17 17 -28 38 -10 20 -22 39 -25
42 -7 6 -55 109 -74 160 -61 162 -82 337 -62 520 6 58 39 207 47 218 2 1 4 7
5 12 1 6 4 12 5 15 1 3 3 8 5 13 10 37 68 156 78 160 4 2 7 8 7 14 0 26 120
179 194 247 21 20 44 41 50 47 13 12 114 84 141 101 121 73 295 134 425 150
25 3 46 6 48 8 5 5 231 -3 277 -9z"/>
        <path d="M23650 13305 c0 -3 4 -13 10 -23 25 -46 90 -194 90 -205 0 -7 4 -17
9 -22 8 -9 39 -96 45 -128 2 -7 8 -24 14 -40 7 -15 14 -38 16 -50 2 -12 14
-60 25 -107 39 -164 63 -370 62 -540 0 -105 -14 -291 -25 -356 -15 -84 -41
-207 -50 -239 -2 -5 -6 -23 -11 -40 -11 -44 -50 -159 -80 -240 -15 -38 -29
-78 -32 -87 -5 -17 63 -18 1331 -18 l1336 0 0 88 c1 120 1 991 1 1022 -1 23
-9 29 -63 47 -35 11 -146 50 -248 86 -102 36 -232 81 -290 102 -58 20 -143 50
-190 67 -47 17 -116 41 -155 55 -38 14 -77 27 -85 30 -8 3 -19 7 -25 9 -5 1
-62 21 -125 44 -63 23 -135 48 -160 56 -25 8 -54 19 -65 24 -11 4 -49 18 -85
30 -36 12 -72 24 -80 27 -8 3 -76 27 -150 53 -74 26 -182 64 -240 85 -58 20
-114 40 -125 45 -11 5 -87 32 -170 60 -82 28 -158 55 -167 60 -10 6 -25 10
-33 10 -8 0 -23 4 -33 10 -9 5 -44 19 -77 29 -33 11 -85 29 -115 41 -61 22
-60 22 -60 15z"/>
    </g>
</svg>
